<?xml version="1.0" encoding="utf-8"?>
<!-- Generator: Adobe Illustrator 26.0.1, SVG Export Plug-In . SVG Version: 6.00 Build 0)  -->
<svg version="1.1" id="Layer_1" xmlns="http://www.w3.org/2000/svg" xmlns:xlink="http://www.w3.org/1999/xlink" x="0px" y="0px"
	 viewBox="0 0 19.6 30" style="enable-background:new 0 0 19.6 30;" xml:space="preserve">
<style type="text/css">
	.st0{clip-path:url(#SVGID_00000094581649829755391130000001927915148052338616_);}
	.st1{fill:#999999;}
</style>
<g>
	<defs>
		<rect id="SVGID_1_" x="-0.3" width="19.6" height="30"/>
	</defs>
	<clipPath id="SVGID_00000085971564785875872570000009544390611983227565_">
		<use xlink:href="#SVGID_1_"  style="overflow:visible;"/>
	</clipPath>
	<g id="Group_1532" style="clip-path:url(#SVGID_00000085971564785875872570000009544390611983227565_);">
		<path id="Path_886" class="st1" d="M18.9,28.3l-3.1,1.5l0,0l-0.1,0.1c-1.1,0.5-7.1,1-12.8-11.2S1.5,2.1,2.5,1.6l0.1-0.1l0,0
			l3.1-1.5c0.6-0.3,1.2,0,1.5,0.5c0,0,0,0,0,0l2.8,6c0.3,0.6,0,1.2-0.5,1.5c0,0,0,0,0,0l-3,1.4l0,0L6.3,9.7
			c-0.6,0.3-1.4,1.3,1.2,6.8s3.8,5.5,4.4,5.3l0.2-0.1l3-1.4c0.6-0.3,1.2,0,1.5,0.5c0,0,0,0,0,0l2.8,6C19.7,27.3,19.5,28,18.9,28.3
			C18.9,28.3,18.9,28.3,18.9,28.3"/>
	</g>
</g>
</svg>
