<?xml version="1.0" encoding="utf-8"?>
<!-- Generator: Adobe Illustrator 26.0.1, SVG Export Plug-In . SVG Version: 6.00 Build 0)  -->
<svg version="1.1" id="Icon_-_Mail" xmlns="http://www.w3.org/2000/svg" xmlns:xlink="http://www.w3.org/1999/xlink" x="0px"
	 y="0px" viewBox="0 0 28.6 24" style="enable-background:new 0 0 28.6 24;" xml:space="preserve">
<style type="text/css">
	.st0{clip-path:url(#SVGID_00000103972678454572568710000008574495252729065357_);}
	.st1{fill:#999999;}
</style>
<g>
	<defs>
		<rect id="SVGID_1_" width="28.6" height="24"/>
	</defs>
	<clipPath id="SVGID_00000106141618247263991700000006520392129594312881_">
		<use xlink:href="#SVGID_1_"  style="overflow:visible;"/>
	</clipPath>
	<g id="Group_1598" style="clip-path:url(#SVGID_00000106141618247263991700000006520392129594312881_);">
		<path id="Path_889" class="st1" d="M1.1,1.7h26.4c0.6,0,1.1,0.5,1.1,1.1v20.1c0,0.6-0.5,1.1-1.1,1.1c0,0,0,0,0,0H1.1
			C0.5,24,0,23.5,0,22.9c0,0,0,0,0,0V2.7C0,2.1,0.5,1.7,1.1,1.7 M26.4,4.8L26.4,4.8L14.8,16.4c-0.3,0.2-0.7,0.2-0.9,0L2.2,4.8v17
			h24.2V4.8z M25.5,3.9H3.1l11.2,11.2L25.5,3.9z"/>
	</g>
</g>
</svg>
