<?xml version="1.0" encoding="utf-8"?>
<!-- Generator: Adobe Illustrator 26.0.1, SVG Export Plug-In . SVG Version: 6.00 Build 0)  -->
<svg version="1.1" id="Layer_1" xmlns="http://www.w3.org/2000/svg" xmlns:xlink="http://www.w3.org/1999/xlink" x="0px" y="0px"
	 viewBox="0 0 9.7 14" style="enable-background:new 0 0 9.7 14;" xml:space="preserve">
<style type="text/css">
	.st0{clip-path:url(#SVGID_00000092415618742892701920000004063478564573413806_);}
	.st1{fill:#999999;}
</style>
<g>
	<defs>
		<rect id="SVGID_1_" width="9.7" height="14"/>
	</defs>
	<clipPath id="SVGID_00000071539782937550075020000000911627227652132793_">
		<use xlink:href="#SVGID_1_"  style="overflow:visible;"/>
	</clipPath>
	<g id="Component_1" style="clip-path:url(#SVGID_00000071539782937550075020000000911627227652132793_);">
		<path id="Path_770" class="st1" d="M4.8,0C2.2,0,0,2.2,0,4.8c0,0.9,0.2,1.7,0.7,2.4L4.8,14L9,7.3C10.4,5,9.6,2,7.3,0.7
			C6.5,0.2,5.7,0,4.8,0z M4.8,7C3.6,7,2.7,6,2.7,4.8c0-1.2,1-2.2,2.2-2.2c1.2,0,2.2,1,2.2,2.2C7,6,6.1,7,4.8,7C4.8,7,4.8,7,4.8,7z"
			/>
	</g>
</g>
</svg>
